<?xml version="1.0" encoding="utf-8"?>
<!-- Generator: Adobe Illustrator 27.1.0, SVG Export Plug-In . SVG Version: 6.00 Build 0)  -->
<svg version="1.1" id="Layer_1" xmlns="http://www.w3.org/2000/svg" xmlns:xlink="http://www.w3.org/1999/xlink" x="0px" y="0px"
	 viewBox="0 0 2000 2000" style="enable-background:new 0 0 2000 2000;" xml:space="preserve">
<style type="text/css">
	.st0{display:none;fill:#FFFFFF;}
	.st1{fill:url(#SVGID_1_);}
	.st2{fill:url(#SVGID_00000090291936119765525860000005496240041532338877_);}
	.st3{fill:url(#SVGID_00000149370080081369757920000015001254658985235894_);}
	.st4{fill:url(#SVGID_00000027605046360540159870000007932999483940790709_);}
	.st5{fill:url(#SVGID_00000000908906592378057750000012180652601071674296_);}
	.st6{fill:url(#SVGID_00000049902212481450676840000001978427978848798603_);}
	.st7{fill:url(#SVGID_00000042704223164391273730000008762195776167244973_);}
	.st8{fill:url(#SVGID_00000075877146347008035420000014334796042161198977_);}
	.st9{fill:url(#SVGID_00000109744481708988910830000001308580783359317171_);}
	.st10{fill:url(#SVGID_00000004536543177616041480000017444547778430035856_);}
	.st11{fill:url(#SVGID_00000183939605932952943330000002804196106554403722_);}
	.st12{fill:url(#SVGID_00000175310951635672736410000001386729974289483414_);}
	.st13{fill:url(#SVGID_00000116204310773813189300000004222432476598360476_);}
	.st14{fill:url(#SVGID_00000155848310752886935840000004230040779595394946_);}
	.st15{fill:url(#SVGID_00000119825912741745528660000017356872531107555980_);}
</style>
<rect class="st0" width="2000" height="2000"/>
<g>
	<linearGradient id="SVGID_1_" gradientUnits="userSpaceOnUse" x1="1830.7174" y1="-230.3967" x2="-617.7762" y2="2218.0969">
		<stop  offset="0" style="stop-color:#FC00FF"/>
		<stop  offset="0.8233" style="stop-color:#1ADFE1"/>
		<stop  offset="1" style="stop-color:#00C5C8"/>
	</linearGradient>
	<polygon class="st1" points="1201.49,405.26 1211.25,424.08 1220.25,404.88 1241.17,401.42 1225.7,386.93 1228.86,365.96 
		1210.3,376.2 1191.34,366.72 1195.34,387.53 1180.46,402.63 	"/>
	
		<linearGradient id="SVGID_00000029737014441882574750000013243182797475843496_" gradientUnits="userSpaceOnUse" x1="2021.9912" y1="-39.111" x2="-426.4839" y2="2409.364">
		<stop  offset="0" style="stop-color:#FC00FF"/>
		<stop  offset="0.8233" style="stop-color:#1ADFE1"/>
		<stop  offset="1" style="stop-color:#00C5C8"/>
	</linearGradient>
	<polygon style="fill:url(#SVGID_00000029737014441882574750000013243182797475843496_);" points="1325.91,661.28 1332.45,673.89 
		1338.48,661.03 1352.49,658.7 1342.13,648.99 1344.25,634.95 1331.81,641.81 1319.11,635.45 1321.79,649.4 1311.82,659.52 	"/>
	
		<linearGradient id="SVGID_00000076595856777492508260000010844953415365985935_" gradientUnits="userSpaceOnUse" x1="2078.4651" y1="17.3628" x2="-370.008" y2="2465.8359">
		<stop  offset="0" style="stop-color:#FC00FF"/>
		<stop  offset="0.8233" style="stop-color:#1ADFE1"/>
		<stop  offset="1" style="stop-color:#00C5C8"/>
	</linearGradient>
	<path style="fill:url(#SVGID_00000076595856777492508260000010844953415365985935_);" d="M1377.55,642.46
		c40.6,28.17,31.07,50.79,2.9,91.39c28.17-40.6,46.02-57.44,86.62-29.27c-40.6-28.17-31.58-50.06-3.4-90.66
		C1435.49,654.53,1418.15,670.64,1377.55,642.46z"/>
	
		<linearGradient id="SVGID_00000043449211729812385140000006274485958448273082_" gradientUnits="userSpaceOnUse" x1="1849.8491" y1="-186.8773" x2="-598.6233" y2="2261.595">
		<stop  offset="0" style="stop-color:#FC00FF"/>
		<stop  offset="0.8233" style="stop-color:#1ADFE1"/>
		<stop  offset="1" style="stop-color:#00C5C8"/>
	</linearGradient>
	<path style="fill:url(#SVGID_00000043449211729812385140000006274485958448273082_);" d="M1138.91,531.04
		c10.64-15.33,17.37-21.69,32.7-11.05c-15.33-10.64-11.92-18.9-1.29-34.23c-10.64,15.33-17.18,21.41-32.51,10.77
		C1153.14,507.17,1149.54,515.71,1138.91,531.04z"/>
	
		<linearGradient id="SVGID_00000057129684473065329060000011150489381862507664_" gradientUnits="userSpaceOnUse" x1="1763.9177" y1="-297.1827" x2="-684.5482" y2="2151.2832">
		<stop  offset="0" style="stop-color:#FC00FF"/>
		<stop  offset="0.8233" style="stop-color:#1ADFE1"/>
		<stop  offset="1" style="stop-color:#00C5C8"/>
	</linearGradient>
	<path style="fill:url(#SVGID_00000057129684473065329060000011150489381862507664_);" d="M1045.65,440.73
		c29.97-43.2,48.96-61.12,92.16-31.14c-43.2-29.97-33.6-53.26-3.62-96.45c-29.97,43.2-48.42,60.34-91.62,30.36
		C1085.77,373.47,1075.63,397.53,1045.65,440.73z"/>
	
		<linearGradient id="SVGID_00000145031000122165027800000013497653155842937474_" gradientUnits="userSpaceOnUse" x1="2183.0491" y1="121.9482" x2="-265.4256" y2="2570.4229">
		<stop  offset="0" style="stop-color:#FC00FF"/>
		<stop  offset="0.8233" style="stop-color:#1ADFE1"/>
		<stop  offset="1" style="stop-color:#00C5C8"/>
	</linearGradient>
	<path style="fill:url(#SVGID_00000145031000122165027800000013497653155842937474_);" d="M1572.85,705.53
		c-41.1,59.24-66.4,82.74-125.63,41.64c59.23,41.1,45.33,74.1,4.22,133.33c41.1-59.23,67.14-83.81,126.37-42.7
		C1518.59,796.69,1531.75,764.76,1572.85,705.53z"/>
	
		<linearGradient id="SVGID_00000155865141307509861990000005038651832704951458_" gradientUnits="userSpaceOnUse" x1="1733.4873" y1="-327.6294" x2="-714.9858" y2="2120.8438">
		<stop  offset="0" style="stop-color:#FC00FF"/>
		<stop  offset="0.8233" style="stop-color:#1ADFE1"/>
		<stop  offset="1" style="stop-color:#00C5C8"/>
	</linearGradient>
	<path style="fill:url(#SVGID_00000155865141307509861990000005038651832704951458_);" d="M828.27,521.81
		c-276.6,0-514.62,165.38-620.49,402.67c29.05,4.33,55.9,16.93,77.65,36.49c22.09-10.75,46.32-16.4,71.13-16.4
		c5.01,0,10.12,0.24,15.18,0.68c76.1,7.1,137.25,67.24,145.48,143.09c5.01,45.93-9.68,91.86-40.29,126.02
		c-13.62,15.18-29.87,27.49-47.73,36.49c4.82-0.1,9.68-0.39,14.45-0.92c41.75-4.52,80.18-25.84,108.16-60.04
		c78.04-95.22,286.14-339.95,532.58-556.08c14.89-13.09,30.41-26.42,47.2-40.63C1040.3,547.45,937.3,521.81,828.27,521.81z
		 M413.63,854.85c10.31-14.89,13.96-23.31,0.19-33.57c13.77,8.95,20.34,3.7,29.92-9.83c-9.59,14.16-12.12,22.19,2.58,32.36
		C431,833.2,424.24,839.52,413.63,854.85z M636.18,959.75l-12.84,27.39l-13.92-26.86l-29.97-3.75l21.21-21.5l-5.69-29.68l27,13.53
		l26.47-14.6l-4.48,29.87L666,954.79L636.18,959.75z M627.56,790.43c28.12-40.97,36.88-64.32-4.82-93.27
		c41.7,28.95,59.99,13.33,88.5-27.34c-28.17,40.92-36.35,63.54,5.35,92.49C674.9,733.41,656.08,749.71,627.56,790.43z
		 M934.33,657.85l-7.49,16.06l-8.17-15.72l-17.56-2.24l12.46-12.6l-3.36-17.37l15.81,7.93l15.52-8.56l-2.68,17.52l12.94,12.12
		L934.33,657.85z"/>
	
		<linearGradient id="SVGID_00000168836654419017034150000003294755542135629462_" gradientUnits="userSpaceOnUse" x1="2238.7917" y1="177.676" x2="-209.6816" y2="2626.1494">
		<stop  offset="0" style="stop-color:#FC00FF"/>
		<stop  offset="0.8233" style="stop-color:#1ADFE1"/>
		<stop  offset="1" style="stop-color:#00C5C8"/>
	</linearGradient>
	<path style="fill:url(#SVGID_00000168836654419017034150000003294755542135629462_);" d="M1247.04,666.31
		c-1.27,1.07-2.58,2.19-3.84,3.31c-17.37,15.08-34.01,30.07-49.53,44.52C1001.48,893,791.58,1160.06,844.22,1441.34
		c35.27-49.92,93.66-81.69,156.81-81.69c48.7,0,94.97,18.34,130.25,50.99c21.51-14.64,46.85-22.53,73.37-22.53
		c59.12,0,108.74,38.49,125.04,92.3c19.9-7.01,40.97-10.61,62.23-10.61c17.9,0,35.66,2.53,52.74,7.49c1.22,0.34,2.43,0.83,3.55,1.36
		c38.05-84.76,59.21-178.76,59.21-277.67C1507.44,983.88,1405.6,790.58,1247.04,666.31z M935.99,1309.29
		c10.66-15.33,14.26-23.89-1.07-34.5c15.33,10.61,21.85,4.53,32.5-10.8c-10.66,15.33-14.06,23.6,1.27,34.2
		C953.36,1287.59,946.64,1293.96,935.99,1309.29z M1081.71,1038.38c24.08-34.69,32.26-54.06-2.48-78.14
		c34.74,24.08,49.53,10.31,73.61-24.38c-24.08,34.69-31.77,53.42,2.92,77.51C1121.07,989.28,1105.79,1003.69,1081.71,1038.38z
		 M1164.57,1339.11c54.54-78.58,72.98-122.32-5.6-176.81c76.97,53.37,110.69,24.57,163.29-50.46
		c-51.87,75.56-67.05,117.26,9.93,170.63C1253.61,1227.98,1219.11,1260.53,1164.57,1339.11z M1307.76,961.99l-21.94,46.71
		l-23.74-45.78l-51.23-6.42l36.25-36.78l-9.78-50.65l46.17,23.06l45.2-24.91l-7.69,51.04l37.66,35.27L1307.76,961.99z"/>
	
		<linearGradient id="SVGID_00000010990973615463737580000001186918602824449470_" gradientUnits="userSpaceOnUse" x1="2094.8467" y1="33.7441" x2="-353.6387" y2="2482.2292">
		<stop  offset="0" style="stop-color:#FC00FF"/>
		<stop  offset="0.8233" style="stop-color:#1ADFE1"/>
		<stop  offset="1" style="stop-color:#00C5C8"/>
	</linearGradient>
	<path style="fill:url(#SVGID_00000010990973615463737580000001186918602824449470_);" d="M1480.12,649.62
		c120.07-18,186.78-125.16,194.25-137.73l7.71-80.91c-44.28,38.6-99.44,77.24-167.75,113.42
		C1529.8,589.29,1500.33,629.07,1480.12,649.62z"/>
	
		<linearGradient id="SVGID_00000026860559818210765820000011439249220502955445_" gradientUnits="userSpaceOnUse" x1="1992.6406" y1="-68.4554" x2="-455.8223" y2="2380.0076">
		<stop  offset="0" style="stop-color:#FC00FF"/>
		<stop  offset="0.8233" style="stop-color:#1ADFE1"/>
		<stop  offset="1" style="stop-color:#00C5C8"/>
	</linearGradient>
	<polygon style="fill:url(#SVGID_00000026860559818210765820000011439249220502955445_);" points="1345.99,551.77 1366.12,578.11 
		1393.24,557.38 1373.11,531.04 	"/>
	
		<linearGradient id="SVGID_00000043439381715086783350000012887274958710615711_" gradientUnits="userSpaceOnUse" x1="1922.0447" y1="-139.0557" x2="-526.4241" y2="2309.4131">
		<stop  offset="0" style="stop-color:#FC00FF"/>
		<stop  offset="0.8233" style="stop-color:#1ADFE1"/>
		<stop  offset="1" style="stop-color:#00C5C8"/>
	</linearGradient>
	<polygon style="fill:url(#SVGID_00000043439381715086783350000012887274958710615711_);" points="1332.16,477.46 1311.85,450.9 
		1284.73,471.63 1305.04,498.19 	"/>
	
		<linearGradient id="SVGID_00000140713416546977624920000000773901457130378169_" gradientUnits="userSpaceOnUse" x1="1850.6622" y1="-210.439" x2="-597.8027" y2="2238.0259">
		<stop  offset="0" style="stop-color:#FC00FF"/>
		<stop  offset="0.8233" style="stop-color:#1ADFE1"/>
		<stop  offset="1" style="stop-color:#00C5C8"/>
	</linearGradient>
	<path style="fill:url(#SVGID_00000140713416546977624920000000773901457130378169_);" d="M1356.06,337.34
		c52.84-56.42,104.61-99.5,153.47-132.1l-80.01-13.68c-14.1,3.91-135.09,40.04-183.97,151.18
		C1270.78,328.74,1316.81,310.64,1356.06,337.34z"/>
	
		<linearGradient id="SVGID_00000003814031135316043570000014449306824719645847_" gradientUnits="userSpaceOnUse" x1="1982.557" y1="-78.5452" x2="-465.9175" y2="2369.9292">
		<stop  offset="0" style="stop-color:#FC00FF"/>
		<stop  offset="0.8233" style="stop-color:#1ADFE1"/>
		<stop  offset="1" style="stop-color:#00C5C8"/>
	</linearGradient>
	<path style="fill:url(#SVGID_00000003814031135316043570000014449306824719645847_);" d="M1535.21,205.36
		c-1.02,1.65-2.87,2.73-4.96,3.02c-70.4,44.71-147.38,111.27-225.52,210.14l38.53,50.41l160.27-122.46
		c2.92-2.24,6.47-3.36,10.07-3.26l36.78-5.98c0.49,0,1.12-0.15,1.7-0.05c8.81,0.88,15.57,9.78,14.11,18.44
		c-0.19,0.54-0.34,1.17-0.49,1.61l-15.52,33.91c-0.78,3.55-2.82,6.71-5.64,8.9l-160.32,122.51l38.39,50.21
		c115.8-49.58,200.26-106.36,261.96-162.7c0.83-1.65,2.34-3.16,4.23-3.75c139.4-129.28,159.39-254.95,162.12-283.07
		C1823.05,118.47,1696.5,104.79,1535.21,205.36z M1711.53,315.86c-31.43,24.04-76.53,18-100.62-13.43
		c-24.04-31.43-17.95-76.53,13.48-100.62c31.43-24.04,76.53-18,100.57,13.43C1749.04,246.72,1743.01,291.82,1711.53,315.86z"/>
	
		<linearGradient id="SVGID_00000076577187840996407870000004410800367449004428_" gradientUnits="userSpaceOnUse" x1="1993.943" y1="-67.1598" x2="-454.5295" y2="2381.3127">
		<stop  offset="0" style="stop-color:#FC00FF"/>
		<stop  offset="0.8233" style="stop-color:#1ADFE1"/>
		<stop  offset="1" style="stop-color:#00C5C8"/>
	</linearGradient>
	<path style="fill:url(#SVGID_00000076577187840996407870000004410800367449004428_);" d="M1632.86,212.93
		c-25.34,19.37-30.19,55.65-10.82,80.99c19.37,25.34,55.65,30.19,80.99,10.82c25.23-19.28,30.19-55.65,10.82-80.99
		C1694.48,198.41,1658.09,193.65,1632.86,212.93z"/>
	
		<linearGradient id="SVGID_00000179606550519256640040000007869612332380838529_" gradientUnits="userSpaceOnUse" x1="2064.4028" y1="3.2998" x2="-384.0716" y2="2451.7742">
		<stop  offset="0" style="stop-color:#FC00FF"/>
		<stop  offset="0.8233" style="stop-color:#1ADFE1"/>
		<stop  offset="1" style="stop-color:#00C5C8"/>
	</linearGradient>
	<path style="fill:url(#SVGID_00000179606550519256640040000007869612332380838529_);" d="M1310.95,1515.54
		c-1.75-57.22-48.7-103.1-106.31-103.1c-29.44,0-56.1,12.02-75.37,31.33c-30.7-36.54-76.78-59.8-128.25-59.8
		c-75.66,0-139.54,50.16-160.22,119.11l-7.05-2.43c-93.66-307.55,124.36-600.55,343.31-804.31c16.74-15.57,33.52-30.6,50.11-45.05
		c22.92-20,45.54-38.92,67.58-56.73c10.27-8.27,15.23-20.43,14.74-32.5l21.31-16.3c0.29-0.39,0.54-0.73,0.97-1.07
		c0.44-0.34,0.83-0.49,1.27-0.63l36-27.54c0.24-0.34,0.49-0.73,0.97-1.07c0.44-0.34,0.83-0.49,1.27-0.63l164.75-125.87
		c0.29-0.29,0.54-0.63,0.63-1.22c0.1-0.58,0.34-1.17,0.53-1.65l15.23-33.47c-0.2-0.73-0.44-1.07-1.02-1.36l-36.3,5.94
		c-0.54,0.05-1.22,0.05-1.7,0.1l-225.13,171.36c-13.38-6.96-29.97-5.84-42.48,3.75c-30.6,23.5-60.96,47.92-90.94,73.03
		c-18.29,15.37-36.49,30.94-54.44,46.71c-248.19,217.63-459.5,467.43-529.8,553.21c-31.14,38-75.51,63.49-124.36,68.8
		c-80.91,8.81-135.55-38.1-135.55-38.1c14.35,5.06,29.68,7.83,45.74,7.83c81.01,0,145.62-70.11,136.57-152.87
		c-6.96-64.18-59.21-115.51-123.53-121.49c-32.74-3.02-63.4,5.55-88.41,21.89c-20.48-24.13-49.92-40.38-83.2-43.6
		c-31.48,78.24-48.8,163.68-48.8,253.2c0,191.46,79.21,364.38,206.64,487.86c79.4,76.92,177.59,134.68,287.01,165.67
		c58.97,16.69,121.2,25.64,185.52,25.64c19.22,0,38.24-0.78,57.02-2.38c21.26-1.75,42.18-4.53,62.81-8.17h0.05
		c103.25-18.39,198.41-60.09,279.91-119.45c6.52-4.82,12.99-9.68,19.36-14.69c79.79-62.72,145.23-142.9,190.48-234.81
		c-14.6-4.23-30.02-6.52-45.98-6.52C1362.47,1494.14,1334.84,1501.92,1310.95,1515.54z"/>
</g>
</svg>
